<svg width="169" height="54" viewBox="0 0 169 54" fill="none" xmlns="http://www.w3.org/2000/svg">
<g clip-path="url(#clip0_1_1246)">
<path fill-rule="evenodd" clip-rule="evenodd" d="M8.92815 1.46973C4.36415 1.46973 0.663147 5.19973 0.663147 9.80273V45.1367C0.663147 49.7397 4.36415 53.4697 8.92815 53.4697H159.398C163.962 53.4697 167.663 49.7397 167.663 45.1367V9.80273C167.663 5.19973 163.962 1.46973 159.398 1.46973H8.92815Z" fill="white" stroke="#FFCC00"/>
<path fill-rule="evenodd" clip-rule="evenodd" d="M34.9202 27.8679C34.9329 26.7646 35.2234 25.6822 35.7649 24.7208C36.3063 23.7593 37.0813 22.9498 38.0182 22.3669C37.4274 21.5139 36.6452 20.8111 35.734 20.3146C34.8229 19.8181 33.8082 19.5419 32.7712 19.5079C30.5632 19.2739 28.4232 20.8389 27.2982 20.8389C26.1512 20.8389 24.4182 19.5309 22.5532 19.5689C21.3438 19.6103 20.166 19.9653 19.1352 20.599C18.1044 21.2327 17.256 22.1235 16.6732 23.1839C14.1292 27.6209 16.0262 34.1409 18.4622 37.7279C19.6812 39.4839 21.1052 41.4449 22.9692 41.3759C24.7922 41.2989 25.4732 40.2039 27.6752 40.2039C29.8552 40.2039 30.4952 41.3759 32.3962 41.3309C34.3532 41.2989 35.5862 39.5679 36.7622 37.7949C37.6384 36.5421 38.3119 35.1592 38.7582 33.6969C37.6181 33.2077 36.6467 32.3946 35.9644 31.3584C35.2822 30.3222 34.9191 29.1085 34.9202 27.8679ZM31.3282 17.1499C32.3966 15.8555 32.9221 14.1975 32.7942 12.5239C31.1611 12.6983 29.6545 13.4843 28.5772 14.7239C27.5082 15.9519 26.9677 17.5523 27.0732 19.1769C27.8899 19.1845 28.6976 19.0058 29.4349 18.6544C30.1722 18.303 30.8197 17.7891 31.3282 17.1499Z" fill="#003595"/>
<path d="M60.1631 36.9296H53.9411L52.4461 41.3766H49.8101L55.7051 24.9226H58.4431L64.3381 41.3766H61.6581L60.1631 36.9296ZM54.5851 34.8776H59.5181L57.0861 27.6596H57.0181L54.5851 34.8776ZM77.0691 35.3796C77.0691 39.1076 75.0891 41.5026 72.1011 41.5026C70.5571 41.5836 69.1011 40.7686 68.3561 39.4036H68.2991V45.3456H65.8561V29.3796H68.2211V31.3746H68.2661C68.6461 30.7106 69.1995 30.1625 69.8672 29.7891C70.5348 29.4156 71.2915 29.2308 72.0561 29.2546C75.0771 29.2546 77.0691 31.6616 77.0691 35.3796ZM74.5571 35.3796C74.5571 32.9506 73.3121 31.3536 71.4111 31.3536C69.5451 31.3536 68.2891 32.9836 68.2891 35.3796C68.2891 37.7966 69.5451 39.4156 71.4111 39.4156C73.3111 39.4156 74.5571 37.8306 74.5571 35.3796ZM90.1701 35.3796C90.1701 39.1076 88.1901 41.5026 85.2031 41.5026C83.6581 41.5836 82.2031 40.7686 81.4571 39.4036H81.4011V45.3456H78.9571V29.3796H81.3221V31.3746H81.3671C81.7471 30.7106 82.3005 30.1625 82.9682 29.7891C83.6358 29.4156 84.3925 29.2308 85.1571 29.2546C88.1791 29.2546 90.1701 31.6616 90.1701 35.3796ZM87.6591 35.3796C87.6591 32.9506 86.4131 31.3536 84.5131 31.3536C82.6461 31.3536 81.3901 32.9836 81.3901 35.3796C81.3901 37.7966 82.6461 39.4156 84.5131 39.4156C86.4131 39.4156 87.6591 37.8306 87.6591 35.3796ZM98.8291 36.7926C99.0101 38.4246 100.583 39.4956 102.733 39.4956C104.792 39.4956 106.273 38.4236 106.273 36.9526C106.273 35.6756 105.38 34.9106 103.264 34.3866L101.148 33.8736C98.1501 33.1436 96.7581 31.7306 96.7581 29.4376C96.7581 26.5986 99.2131 24.6486 102.699 24.6486C106.149 24.6486 108.514 26.5986 108.594 29.4376H106.127C105.98 27.7956 104.633 26.8046 102.664 26.8046C100.696 26.8046 99.3491 27.8076 99.3491 29.2666C99.3491 30.4296 100.209 31.1146 102.314 31.6386L104.113 32.0836C107.463 32.8816 108.854 34.2386 108.854 36.6446C108.854 39.7236 106.421 41.6516 102.551 41.6516C98.9311 41.6516 96.4861 39.7686 96.3281 36.7916H98.8291V36.7926ZM114.128 26.5426V29.3806H116.391V31.3306H114.128V37.9436C114.128 38.9716 114.581 39.4506 115.576 39.4506C115.845 39.4456 116.113 39.4266 116.38 39.3936V41.3316C115.933 41.4158 115.478 41.454 115.023 41.4456C112.613 41.4456 111.673 40.5336 111.673 38.2066V31.3306H109.942V29.3806H111.672V26.5416L114.128 26.5426ZM117.702 35.3796C117.702 31.6046 119.908 29.2336 123.348 29.2336C126.799 29.2336 128.995 31.6046 128.995 35.3796C128.995 39.1646 126.811 41.5256 123.348 41.5256C119.886 41.5256 117.702 39.1646 117.702 35.3796ZM126.505 35.3796C126.505 32.7896 125.328 31.2626 123.348 31.2626C121.368 31.2626 120.192 32.8026 120.192 35.3796C120.192 37.9796 121.368 39.4956 123.348 39.4956C125.328 39.4956 126.505 37.9786 126.505 35.3796ZM131.009 29.3806H133.339V31.4226H133.396C133.551 30.7869 133.921 30.2241 134.442 29.8293C134.964 29.4345 135.606 29.2319 136.26 29.2556C136.541 29.2546 136.822 29.2856 137.097 29.3466V31.6506C136.742 31.5407 136.371 31.49 135.999 31.5006C135.644 31.4863 135.289 31.5496 134.961 31.6861C134.632 31.8225 134.337 32.0287 134.096 32.2906C133.606 32.8216 133.371 33.5416 133.453 34.2606V41.3766H131.009V29.3806ZM148.362 37.8536C148.033 40.0316 145.929 41.5256 143.237 41.5256C139.774 41.5256 137.624 39.1876 137.624 35.4356C137.624 31.6736 139.785 29.2336 143.134 29.2336C146.427 29.2336 148.498 31.5136 148.498 35.1506V35.9946H140.091V36.1426C140.052 36.5836 140.107 37.028 140.251 37.4464C140.396 37.8649 140.628 38.248 140.931 38.5706C141.233 38.8913 141.6 39.1438 142.007 39.3111C142.415 39.4784 142.853 39.5567 143.293 39.5406C143.872 39.5943 144.453 39.459 144.949 39.1549C145.445 38.8507 145.829 38.3942 146.043 37.8536H148.362ZM140.102 34.2736H146.054C146.076 33.877 146.017 33.48 145.879 33.1074C145.742 32.7348 145.529 32.3945 145.254 32.1076C144.981 31.822 144.652 31.5964 144.287 31.4449C143.922 31.2934 143.529 31.2194 143.134 31.2276C142.736 31.2256 142.341 31.3031 141.972 31.4554C141.604 31.6076 141.27 31.8317 140.989 32.1146C140.707 32.3985 140.483 32.7354 140.331 33.1058C140.179 33.4763 140.101 33.8731 140.102 34.2736ZM54.2791 12.2746C54.7952 12.2381 55.3127 12.3198 55.7924 12.5135C56.2721 12.7073 56.7012 13.0079 57.0471 13.3926C57.4025 13.7869 57.6689 14.2531 57.8282 14.7596C57.9874 15.266 58.0358 15.8008 57.9701 16.3276C57.9701 18.9336 56.6161 20.4316 54.2791 20.4316H51.4451V12.2746H54.2791ZM52.6631 19.2776H54.1421C54.511 19.299 54.8798 19.2357 55.2205 19.0926C55.5611 18.9494 55.8644 18.7301 56.1071 18.4516C56.6091 17.8816 56.8371 17.1086 56.7291 16.3446C56.8291 15.5836 56.5971 14.8156 56.0971 14.2516C55.855 13.9751 55.5531 13.7573 55.2145 13.6145C54.8758 13.4718 54.5091 13.4078 54.1421 13.4276H52.6631V19.2776ZM59.3461 17.3506C59.2441 16.2476 59.7531 15.1796 60.6591 14.5956C61.0992 14.3097 61.6128 14.1575 62.1376 14.1575C62.6624 14.1575 63.176 14.3097 63.6161 14.5956C64.5221 15.1796 65.0311 16.2476 64.9301 17.3506C65.0331 18.4556 64.5251 19.5256 63.6181 20.1106C63.1777 20.3971 62.6636 20.5496 62.1381 20.5496C61.6127 20.5496 61.0986 20.3971 60.6581 20.1106C59.7511 19.5256 59.2421 18.4556 59.3461 17.3506ZM63.7281 17.3506C63.7281 16.0166 63.1511 15.2366 62.1401 15.2366C61.1241 15.2366 60.5531 16.0166 60.5531 17.3506C60.5531 18.6956 61.1241 19.4706 62.1401 19.4706C63.1511 19.4706 63.7281 18.6906 63.7281 17.3506ZM72.3521 20.4306H71.1401L69.9171 15.8976H69.8241L68.6061 20.4316H67.4061L65.7731 14.2756H66.9581L68.0181 18.9726H68.1061L69.3231 14.2756H70.4441L71.6611 18.9726H71.7541L72.8091 14.2756H73.9781L72.3521 20.4306ZM75.3501 14.2756H76.4751V15.2536H76.5621C76.8661 14.5336 77.5751 14.0936 78.3291 14.1566C78.6194 14.1351 78.9108 14.181 79.1803 14.2908C79.4499 14.4006 79.6905 14.5713 79.8831 14.7896C80.2821 15.2346 80.4641 15.8446 80.3781 16.4466V20.4316H79.2101V16.7516C79.2101 15.7616 78.7961 15.2706 77.9321 15.2706C77.5371 15.2506 77.1521 15.4126 76.8811 15.7126C76.6091 16.0126 76.4771 16.4206 76.5191 16.8306V20.4306H75.3501V14.2756ZM82.2401 11.8726H83.4081V20.4316H82.2401V11.8726ZM85.0331 17.3506C84.9311 16.2476 85.4401 15.1796 86.3461 14.5946C86.7863 14.3084 87.3001 14.1562 87.8251 14.1562C88.3502 14.1562 88.8639 14.3084 89.3041 14.5946C90.2101 15.1796 90.7191 16.2476 90.6171 17.3506C90.7211 18.4556 90.2121 19.5256 89.3061 20.1106C88.8654 20.3974 88.3509 20.5501 87.8251 20.5501C87.2993 20.5501 86.7848 20.3974 86.3441 20.1106C85.4381 19.5256 84.9291 18.4556 85.0331 17.3506ZM89.4151 17.3506C89.4151 16.0166 88.8381 15.2366 87.8271 15.2366C86.8111 15.2366 86.2401 16.0166 86.2401 17.3506C86.2401 18.6956 86.8111 19.4706 87.8271 19.4706C88.8381 19.4706 89.4151 18.6906 89.4151 17.3506ZM91.8471 18.6906C91.8471 17.5826 92.6411 16.9436 94.0491 16.8526L95.6531 16.7566V16.2256C95.6531 15.5756 95.2401 15.2086 94.4411 15.2086C93.7891 15.2086 93.3371 15.4576 93.2071 15.8926H92.0761C92.1961 14.8346 93.1521 14.1566 94.4951 14.1566C95.9791 14.1566 96.8161 14.9256 96.8161 16.2256V20.4316H95.6931V19.5666H95.6001C95.4187 19.8732 95.1575 20.1249 94.8445 20.295C94.5314 20.4651 94.1781 20.5472 93.8221 20.5326C93.5721 20.5589 93.3194 20.5309 93.0812 20.4504C92.843 20.37 92.625 20.2391 92.4421 20.0666C92.2547 19.8897 92.1053 19.6765 92.0031 19.4398C91.901 19.2032 91.8473 18.9483 91.8471 18.6906ZM95.6531 18.1646V17.6496L94.2071 17.7456C93.3921 17.8026 93.0221 18.0916 93.0221 18.6336C93.0221 19.1876 93.4841 19.5106 94.1201 19.5106C94.3072 19.5297 94.4962 19.5098 94.6752 19.4521C94.8543 19.3944 95.0194 19.3003 95.1601 19.1756C95.4501 18.9216 95.6271 18.5566 95.6531 18.1646ZM98.3521 17.3506C98.3521 15.4056 99.3141 14.1736 100.809 14.1736C101.184 14.1587 101.555 14.2528 101.877 14.4445C102.199 14.6362 102.459 14.9172 102.625 15.2536H102.712V11.8726H103.881V20.4316H102.761V19.4586H102.669C102.49 19.7928 102.22 20.0704 101.892 20.2602C101.563 20.4499 101.188 20.5442 100.809 20.5326C99.3031 20.5326 98.3521 19.3006 98.3521 17.3506ZM99.5591 17.3506C99.5591 18.6566 100.151 19.4426 101.141 19.4426C102.126 19.4426 102.734 18.6456 102.734 17.3566C102.734 16.0736 102.119 15.2646 101.141 15.2646C100.157 15.2646 99.5591 16.0556 99.5591 17.3506ZM108.715 17.3506C108.613 16.2476 109.122 15.1796 110.028 14.5956C110.468 14.3094 110.982 14.1572 111.507 14.1572C112.032 14.1572 112.546 14.3094 112.986 14.5956C113.891 15.1796 114.4 16.2476 114.299 17.3506C114.402 18.4556 113.894 19.5256 112.987 20.1106C112.547 20.3971 112.033 20.5496 111.507 20.5496C110.982 20.5496 110.468 20.3971 110.027 20.1106C109.12 19.5256 108.611 18.4556 108.715 17.3506ZM113.097 17.3506C113.097 16.0166 112.52 15.2366 111.509 15.2366C110.493 15.2366 109.922 16.0166 109.922 17.3506C109.922 18.6956 110.493 19.4706 111.509 19.4706C112.521 19.4706 113.097 18.6906 113.097 17.3506ZM115.867 14.2756H116.991V15.2536H117.079C117.382 14.5336 118.092 14.0936 118.845 14.1566C119.135 14.1351 119.427 14.181 119.696 14.2908C119.966 14.4006 120.206 14.5713 120.399 14.7896C120.798 15.2346 120.98 15.8446 120.895 16.4466V20.4316H119.726V16.7516C119.726 15.7616 119.313 15.2706 118.449 15.2706C118.053 15.2506 117.669 15.4126 117.397 15.7126C117.125 16.0126 116.993 16.4206 117.035 16.8306V20.4306H115.867V14.2756ZM127.497 12.7426V14.3036H128.779V15.3266H127.497V18.4926C127.497 19.1376 127.752 19.4196 128.334 19.4196C128.483 19.4196 128.632 19.4096 128.779 19.3916V20.4036C128.569 20.4426 128.357 20.4636 128.144 20.4656C126.844 20.4656 126.327 19.9906 126.327 18.8036V15.3266H125.387V14.3036H126.327V12.7436H127.497V12.7426ZM130.375 11.8726H131.534V15.2646H131.626C131.944 14.5386 132.666 14.0976 133.431 14.1626C133.72 14.1472 134.008 14.1975 134.275 14.3098C134.542 14.422 134.779 14.5932 134.97 14.8106C135.166 15.0334 135.312 15.2955 135.398 15.5794C135.484 15.8633 135.509 16.1624 135.47 16.4566V20.4316H134.3V16.7566C134.3 15.7736 133.86 15.2756 133.035 15.2756C132.833 15.2589 132.629 15.288 132.44 15.3607C132.25 15.4335 132.079 15.5479 131.94 15.6956C131.653 15.9956 131.508 16.4136 131.544 16.8356V20.4316H130.375V11.8726ZM142.283 18.7696C141.955 19.9296 140.875 20.6806 139.718 20.5496C139.325 20.5588 138.934 20.4801 138.575 20.3192C138.216 20.1583 137.898 19.9193 137.643 19.6196C137.381 19.3125 137.187 18.9536 137.074 18.5664C136.96 18.1793 136.929 17.7724 136.983 17.3726C136.931 16.9715 136.962 16.564 137.075 16.1758C137.189 15.7875 137.382 15.4272 137.642 15.1176C137.896 14.8154 138.212 14.5727 138.57 14.4068C138.928 14.2409 139.318 14.1558 139.712 14.1576C141.36 14.1576 142.353 15.3276 142.353 17.2596V17.6836H138.173V17.7516C138.136 18.2086 138.286 18.6606 138.586 18.9966C138.886 19.3326 139.309 19.5206 139.75 19.5156C140.033 19.5484 140.319 19.4947 140.57 19.3615C140.822 19.2283 141.027 19.0218 141.158 18.7696H142.283ZM138.173 16.7856H141.163C141.178 16.5802 141.152 16.3739 141.085 16.1791C141.018 15.9844 140.912 15.8052 140.774 15.6526C140.64 15.5036 140.475 15.3852 140.29 15.3055C140.106 15.2258 139.907 15.1866 139.706 15.1906C139.503 15.1886 139.301 15.2285 139.113 15.3078C138.926 15.3871 138.757 15.5041 138.616 15.6516C138.327 15.9516 138.168 16.3616 138.173 16.7856Z" fill="#003595"/>
</g>
<defs>
<clipPath id="clip0_1_1246">
<rect width="168" height="53" fill="white" transform="translate(0.163147 0.969727)"/>
</clipPath>
</defs>
</svg>
