<svg width="169" height="54" viewBox="0 0 169 54" fill="none" xmlns="http://www.w3.org/2000/svg">
<g clip-path="url(#clip0_1_1254)">
<path fill-rule="evenodd" clip-rule="evenodd" d="M8.92809 1.46973C4.36409 1.46973 0.663086 5.19973 0.663086 9.80273V45.1367C0.663086 49.7397 4.36409 53.4697 8.92809 53.4697H159.398C163.962 53.4697 167.663 49.7397 167.663 45.1367V9.80273C167.663 5.19973 163.962 1.46973 159.398 1.46973H8.92809Z" fill="white" stroke="#FFCC00"/>
<path fill-rule="evenodd" clip-rule="evenodd" d="M13.0831 12.8249C12.6969 13.2653 12.5 13.8402 12.5351 14.4249V39.7049C12.4991 40.2849 12.6951 40.8579 13.0841 41.3049L13.1791 41.3959L27.9531 27.2249V26.8819L13.1791 12.7349L13.0841 12.8259L13.0831 12.8249Z" fill="#003595"/>
<path d="M32.9354 31.3191L28.4965 27.0534L32.9511 22.7833L38.5257 25.8565L38.5257 25.8565L38.5293 25.8584C39.2786 26.2636 39.5196 26.7235 39.5196 27.0646C39.5196 27.4057 39.2786 27.8657 38.5293 28.2708L38.5279 28.2716L32.9354 31.3191Z" fill="#003595" stroke="white"/>
<path d="M15.324 40.9348L15.2912 40.9527L15.2615 40.9752C14.8713 41.2703 14.3618 41.3442 13.9127 41.2028L27.9529 27.7574L32.1437 31.7757L15.324 40.9348Z" fill="#003595" stroke="white"/>
<path d="M32.1442 22.3543L27.9529 26.3723L13.9135 12.9277C14.0458 12.8856 14.1843 12.8619 14.325 12.858C14.6625 12.8486 14.9932 12.9536 15.2634 13.156L15.2923 13.1777L15.324 13.1949L32.1442 22.3543Z" fill="#003595" stroke="white"/>
<path opacity="0.2" fill-rule="evenodd" clip-rule="evenodd" d="M32.8761 31.7969L15.5641 41.2139C14.8581 41.7239 13.8841 41.7239 13.1791 41.2139L13.0841 41.2939L13.1791 41.3849C13.8831 41.8999 14.8591 41.8999 15.5641 41.3849L32.9841 31.8989L32.8761 31.7969Z" fill="black"/>
<path opacity="0.12" fill-rule="evenodd" clip-rule="evenodd" d="M13.0831 41.1449C12.694 40.7018 12.4969 40.1224 12.5351 39.5339V39.7049C12.4991 40.2859 12.6951 40.8579 13.0841 41.3049L13.1791 41.2249L13.0831 41.1449ZM38.7661 28.5499L32.8041 31.7849L32.9121 31.8879L38.7661 28.7109C39.1043 28.5758 39.3995 28.3512 39.62 28.0613C39.8405 27.7714 39.9781 27.427 40.0181 27.0649C39.9409 27.3936 39.7873 27.6995 39.5698 27.9577C39.3522 28.2159 39.0769 28.4181 38.7661 28.5499Z" fill="black"/>
<path opacity="0.25" fill-rule="evenodd" clip-rule="evenodd" d="M15.563 12.917L38.766 25.5789C39.0769 25.7108 39.3522 25.914 39.5698 26.1722C39.7873 26.4304 39.9409 26.7363 40.018 27.0649C39.9781 26.7029 39.8405 26.3585 39.62 26.0686C39.3994 25.7787 39.1043 25.5541 38.766 25.419L15.564 12.757C13.894 11.842 12.535 12.597 12.535 14.425V14.654C12.535 12.768 13.895 12.014 15.564 12.917H15.563Z" fill="white"/>
<path fill-rule="evenodd" clip-rule="evenodd" d="M57.2651 16.2267C57.2651 17.2727 56.9621 18.1057 56.3571 18.7267C55.6681 19.4667 54.7721 19.8357 53.6701 19.8357C52.6151 19.8357 51.7171 19.4607 50.9801 18.7107C50.2401 17.9617 49.8711 17.0317 49.8711 15.9237C49.8711 14.8137 50.2391 13.8847 50.9791 13.1347C51.7171 12.3857 52.6151 12.0117 53.6701 12.0117C54.1931 12.0117 54.6951 12.1167 55.1701 12.3247C55.6471 12.5347 56.0291 12.8127 56.3151 13.1607L55.6721 13.8207C55.1881 13.2287 54.5221 12.9307 53.6701 12.9307C52.9001 12.9307 52.235 13.2087 51.673 13.7627C51.111 14.3177 50.8311 15.0367 50.8311 15.9227C50.8311 16.8087 51.111 17.5287 51.673 18.0827C52.235 18.6387 52.9001 18.9137 53.6701 18.9137C54.4871 18.9137 55.1671 18.6357 55.7131 18.0777C56.0671 17.7147 56.2711 17.2107 56.3251 16.5617H53.6701V15.6617H57.2131C57.2481 15.8577 57.2651 16.0447 57.2651 16.2267ZM62.8821 13.0987H59.5521V15.4727H62.555V16.3727H59.5531V18.7467H62.8831V19.6687H58.6131V12.1787H62.8831L62.8821 13.0987ZM66.8451 19.6687H65.905V13.0987H63.8631V12.1787H68.889V13.0987H66.8461L66.8451 19.6687ZM72.5241 19.6687V12.1787H73.4641V19.6687H72.5241ZM77.6311 19.6687H76.6911V13.0987H74.6481V12.1787H79.6731V13.0987H77.6311V19.6687ZM84.5181 18.0727C84.7717 18.3444 85.0798 18.5597 85.4221 18.7046C85.7644 18.8495 86.1334 18.9207 86.5051 18.9137C87.2871 18.9137 87.9501 18.6337 88.4911 18.0737C89.0331 17.5107 89.3041 16.7947 89.3041 15.9237C89.3041 15.0517 89.0331 14.3337 88.4911 13.7737C88.2374 13.5022 87.9296 13.2869 87.5875 13.1418C87.2453 12.9968 86.8766 12.9252 86.5051 12.9317C85.7211 12.9317 85.0591 13.2117 84.5181 13.7737C83.9781 14.3337 83.7061 15.0517 83.7061 15.9237C83.7061 16.7947 83.9781 17.5097 84.5181 18.0727ZM89.1861 18.6997C88.4671 19.4567 87.5741 19.8357 86.5051 19.8357C85.4351 19.8357 84.5421 19.4567 83.8251 18.6997C83.1051 17.9427 82.7471 17.0177 82.7471 15.9237C82.7471 14.8287 83.1061 13.9027 83.8251 13.1457C84.5421 12.3897 85.4351 12.0117 86.5051 12.0117C87.5681 12.0117 88.459 12.3917 89.181 13.1517C89.903 13.9117 90.264 14.8347 90.264 15.9237C90.264 17.0177 89.9041 17.9437 89.1861 18.6997ZM91.5821 19.6677V12.1777H92.725L96.279 18.0037H96.321L96.279 16.5607V12.1797H97.2201V19.6697H96.2401L92.5221 13.5597H92.4801L92.5221 15.0037V19.6687L91.5821 19.6677ZM129.415 40.7847H131.688V25.1797H129.415V40.7847ZM149.9 30.8007L147.293 37.5667H147.215L144.509 30.8007H142.059L146.118 40.2567L143.803 45.5167H146.175L152.429 30.8007H149.899H149.9ZM137.001 39.0117C136.258 39.0117 135.218 38.6297 135.218 37.6867C135.218 36.4827 136.513 36.0197 137.63 36.0197C138.628 36.0197 139.1 36.2427 139.707 36.5417C139.53 37.9887 138.315 39.0117 137.001 39.0117ZM137.277 30.4587C135.63 30.4587 133.925 31.2027 133.219 32.8487L135.238 33.7117C135.669 32.8487 136.472 32.5677 137.316 32.5677C138.492 32.5677 139.688 33.2897 139.707 34.5747V34.7347C139.295 34.4947 138.413 34.1347 137.335 34.1347C135.158 34.1347 132.944 35.3587 132.944 37.6467C132.944 39.7347 134.728 41.0807 136.727 41.0807C138.255 41.0807 139.1 40.3777 139.627 39.5537H139.707V40.7587H141.903V34.7757C141.903 32.0057 139.883 30.4587 137.277 30.4587ZM123.221 32.7007H119.987V27.3517H123.221C124.921 27.3517 125.887 28.7917 125.887 30.0257C125.887 31.2357 124.922 32.7007 123.221 32.7007ZM123.163 25.1797H117.713V40.7857H119.987V34.8737H123.163C125.683 34.8737 128.161 33.0037 128.161 30.0267C128.161 27.0497 125.683 25.1797 123.163 25.1797ZM93.447 39.0147C91.877 39.0147 90.5611 37.6677 90.5611 35.8177C90.5611 33.9467 91.876 32.5797 93.447 32.5797C94.997 32.5797 96.2151 33.9467 96.2151 35.8177C96.2151 37.6677 94.998 39.0147 93.447 39.0147ZM96.057 31.6747H95.9801C95.4701 31.0517 94.487 30.4877 93.251 30.4877C90.659 30.4877 88.281 32.8207 88.281 35.8177C88.281 38.7937 90.659 41.1067 93.251 41.1067C94.487 41.1067 95.4691 40.5437 95.9801 39.8997H96.058V40.6637C96.058 42.6957 94.9981 43.7807 93.2901 43.7807C91.896 43.7807 91.0321 42.7557 90.6781 41.8907L88.695 42.7357C89.265 44.1427 90.7751 45.8727 93.2901 45.8727C95.9601 45.8727 98.2191 44.2627 98.2191 40.3417V30.8097H96.058L96.057 31.6747ZM99.7901 40.7847H102.067V25.1797H99.7901V40.7847ZM105.424 35.6367C105.366 33.5847 106.976 32.5397 108.134 32.5397C109.038 32.5397 109.804 33.0027 110.06 33.6657L105.424 35.6367ZM112.494 33.8667C112.061 32.6807 110.746 30.4877 108.056 30.4877C105.386 30.4877 103.166 32.6397 103.166 35.7977C103.166 38.7737 105.366 41.1067 108.311 41.1067C110.686 41.1067 112.061 39.6187 112.631 38.7537L110.864 37.5467C110.274 38.4317 109.47 39.0147 108.311 39.0147C107.153 39.0147 106.328 38.4717 105.799 37.4047L112.729 34.4697L112.494 33.8667ZM57.2721 32.1177V34.3697H62.5331C62.3771 35.6367 61.9641 36.5617 61.3371 37.2047C60.5701 37.9897 59.3721 38.8547 57.2721 38.8547C54.0311 38.8547 51.4981 36.1797 51.4981 32.8617C51.4981 29.5437 54.0311 26.8677 57.2721 26.8677C59.0201 26.8677 60.2961 27.5717 61.2381 28.4777L62.7891 26.8887C61.4731 25.6017 59.7261 24.6157 57.2721 24.6157C52.8321 24.6157 49.1021 28.3167 49.1021 32.8617C49.1021 37.4057 52.8321 41.1067 57.2721 41.1067C59.6671 41.1067 61.4731 40.3017 62.8871 38.7937C64.3401 37.3057 64.792 35.2137 64.792 33.5247C64.792 33.0027 64.7521 32.5197 64.6741 32.1177H57.2721ZM70.7741 39.0147C69.2041 39.0147 67.849 37.6877 67.849 35.7977C67.849 33.8877 69.2041 32.5797 70.7741 32.5797C72.3441 32.5797 73.7001 33.8867 73.7001 35.7977C73.7001 37.6877 72.3451 39.0147 70.7741 39.0147ZM70.7741 30.4877C67.9071 30.4877 65.571 32.7207 65.571 35.7977C65.571 38.8547 67.9071 41.1067 70.7741 41.1067C73.6421 41.1067 75.9781 38.8547 75.9781 35.7977C75.9781 32.7207 73.6421 30.4877 70.7741 30.4877ZM82.126 39.0147C80.555 39.0147 79.1991 37.6877 79.1991 35.7977C79.1991 33.8877 80.555 32.5797 82.126 32.5797C83.696 32.5797 85.0511 33.8867 85.0511 35.7977C85.0511 37.6877 83.697 39.0147 82.126 39.0147ZM82.126 30.4877C79.259 30.4877 76.9231 32.7207 76.9231 35.7977C76.9231 38.8547 79.259 41.1067 82.126 41.1067C84.9921 41.1067 87.3291 38.8547 87.3291 35.7977C87.3291 32.7207 84.9921 30.4877 82.126 30.4877Z" fill="#003595"/>
</g>
<defs>
<clipPath id="clip0_1_1254">
<rect width="168" height="53" fill="white" transform="translate(0.163086 0.969727)"/>
</clipPath>
</defs>
</svg>
