<svg width="105" height="35" viewBox="0 0 105 35" fill="none" xmlns="http://www.w3.org/2000/svg">
<path d="M21.1145 9.09553H22.3386C22.6308 9.09549 22.9181 9.17036 23.1735 9.31313C23.4289 9.4559 23.6439 9.66187 23.7981 9.91146C23.9523 10.1611 24.0407 10.4461 24.0549 10.7396C24.0692 11.0331 24.0087 11.3254 23.8793 11.5889L16.2676 27.0918C16.2478 27.1322 16.2171 27.1661 16.1791 27.1898C16.1411 27.2136 16.0972 27.2262 16.0525 27.2262H14.49C14.0931 27.2262 13.7098 27.0814 13.4111 26.8185C13.1124 26.5557 12.9188 26.1927 12.8661 25.7971L11.6977 17.0644C11.6934 17.0324 11.679 17.0026 11.6566 16.9795C11.6342 16.9564 11.605 16.9411 11.5733 16.936C11.5416 16.9309 11.5091 16.9363 11.4806 16.9512C11.4522 16.9661 11.4292 16.9898 11.4153 17.0189L6.54082 27.0894C6.52118 27.1301 6.49055 27.1644 6.45245 27.1883C6.41435 27.2123 6.37031 27.225 6.32536 27.225H4.75303C4.35843 27.225 3.97711 27.0817 3.67914 26.8215C3.38117 26.5613 3.18658 26.2017 3.13113 25.8088L0.800769 9.288C0.797364 9.26389 0.799143 9.23936 0.80599 9.21601C0.812837 9.19266 0.824596 9.17102 0.84046 9.15264C0.856324 9.13425 0.875928 9.11952 0.897948 9.10942C0.919968 9.09931 0.943885 9.09404 0.968091 9.09403H2.93771C3.47156 9.09397 3.98719 9.28933 4.38841 9.64352C4.78962 9.99772 5.04899 10.4866 5.11813 11.019L6.24909 19.731C6.2527 19.7593 6.2653 19.7857 6.28501 19.8062C6.30473 19.8267 6.3305 19.8403 6.3585 19.8449C6.3865 19.8495 6.41522 19.8448 6.4404 19.8316C6.46557 19.8185 6.48584 19.7975 6.49819 19.7718L11.5927 9.22968C11.6124 9.18896 11.6431 9.15467 11.6812 9.13063C11.7194 9.1066 11.7635 9.09379 11.8085 9.09375H13.3744C13.6113 9.09377 13.84 9.18057 14.0179 9.33784C14.1957 9.49511 14.3106 9.71212 14.341 9.94835L15.6001 19.7301C15.6037 19.7584 15.6163 19.7848 15.636 19.8053C15.6557 19.8258 15.6815 19.8394 15.7095 19.8439C15.7375 19.8485 15.7662 19.8439 15.7914 19.8308C15.8166 19.8176 15.8368 19.7966 15.8492 19.771L20.9626 9.18973C20.9765 9.16104 20.9981 9.13687 21.0251 9.11995C21.052 9.10304 21.0831 9.09403 21.1148 9.09403" fill="#FFCC00"/>
<path d="M25.6648 27.2262H23.9611C23.7219 27.2262 23.4856 27.1735 23.2688 27.0718C23.0521 26.9702 22.8601 26.822 22.7063 26.6377C22.5526 26.4535 22.4408 26.2376 22.3789 26.0052C22.317 25.7729 22.3064 25.5297 22.3479 25.2928L24.294 14.1863C24.3037 14.1304 24.3327 14.0797 24.376 14.0432C24.4192 14.0067 24.4739 13.9867 24.5303 13.9868H26.8958C27.0539 13.9868 27.21 14.0216 27.3533 14.0889C27.4966 14.1561 27.6235 14.2541 27.7251 14.3759C27.8267 14.4977 27.9005 14.6404 27.9414 14.794C27.9823 14.9476 27.9892 15.1083 27.9618 15.2649L25.9011 27.0273C25.8912 27.0831 25.8621 27.1337 25.8189 27.1701C25.7757 27.2065 25.7211 27.2265 25.6648 27.2265" fill="#FFCC00"/>
<path d="M37.349 13.8459C38.043 13.8317 38.7319 13.9684 39.3685 14.2467C39.9235 14.4939 40.4209 14.8553 40.8286 15.3077C41.221 15.7502 41.5184 16.2694 41.702 16.8327C41.8946 17.4199 41.9914 18.0344 41.9886 18.6527C41.9884 19.0197 41.9604 19.3862 41.9047 19.749L40.6262 27.027C40.6163 27.0828 40.5872 27.1333 40.544 27.1697C40.5008 27.2062 40.4462 27.2261 40.3898 27.2261H38.6731C38.4339 27.2262 38.1975 27.1735 37.9806 27.0718C37.7638 26.9702 37.5717 26.822 37.418 26.6376C37.2642 26.4533 37.1525 26.2373 37.0906 26.0048C37.0287 25.7724 37.0183 25.5292 37.0599 25.2922L37.922 20.3816C38.0709 19.4821 37.9754 18.7677 37.6355 18.2383C37.2957 17.7088 36.706 17.444 35.8666 17.444C35.2238 17.4406 34.6012 17.6701 34.1127 18.0904C33.5653 18.5769 33.2107 19.2456 33.1137 19.9739L31.8906 27.0261C31.8809 27.082 31.8518 27.1328 31.8086 27.1693C31.7653 27.2059 31.7107 27.2259 31.6542 27.2259H29.9369C29.6977 27.2258 29.4614 27.1731 29.2447 27.0715C29.0279 26.9698 28.8359 26.8217 28.6821 26.6374C28.5284 26.4532 28.4166 26.2373 28.3547 26.0049C28.2928 25.7726 28.2822 25.5294 28.3237 25.2925L30.2698 14.1857C30.2796 14.1299 30.3087 14.0792 30.3519 14.0428C30.3951 14.0064 30.4497 13.9864 30.5061 13.9865H31.8296C32.2163 13.9865 32.5926 14.1124 32.9022 14.3455C33.2117 14.5786 33.4378 14.9062 33.5467 15.2794C33.9083 15.009 34.2916 14.7693 34.6927 14.5628C35.0826 14.3758 35.484 14.2138 35.8944 14.0781C36.363 13.921 36.854 13.8422 37.3479 13.8448" fill="#FFCC00"/>
<path d="M57.3458 13.9863H56.4732C55.9566 13.9862 55.4482 14.1164 54.9945 14.365C54.5409 14.6137 54.1565 14.9729 53.8767 15.4097C53.8738 15.4143 53.87 15.4182 53.8654 15.4211C53.8609 15.4241 53.8557 15.426 53.8503 15.4266C53.8449 15.4273 53.8395 15.4267 53.8343 15.4249C53.8292 15.4231 53.8246 15.4202 53.8207 15.4164C53.5154 15.1185 53.1745 14.86 52.8057 14.6469C52.4148 14.4105 51.9973 14.2219 51.562 14.0849C51.0284 13.9182 50.4718 13.8375 49.9131 13.8458C49.0657 13.8476 48.2279 14.0272 47.4534 14.3731C46.662 14.7178 45.9435 15.2116 45.3365 15.8278C44.7104 16.4626 44.2101 17.2116 43.8625 18.0345C43.4172 19.1392 43.2152 20.3276 43.2703 21.5183C43.2643 22.292 43.4042 23.0599 43.6824 23.7813C43.9413 24.4593 44.3361 25.0765 44.8424 25.5945C45.3463 26.1046 45.9444 26.5109 46.6031 26.7903C47.295 27.0839 48.0393 27.2321 48.7902 27.2257C49.2094 27.2326 49.6277 27.1828 50.0337 27.0778C50.3439 26.995 50.6475 26.8893 50.9423 26.7617C51.1341 26.666 51.3189 26.5568 51.4953 26.4348C51.5001 26.4304 51.5062 26.4278 51.5126 26.4274C51.519 26.4269 51.5255 26.4286 51.5308 26.4322C51.5362 26.4358 51.5402 26.4411 51.5422 26.4473C51.5442 26.4535 51.5441 26.4601 51.542 26.4662C50.701 30.5786 47.7895 32.6409 44.8476 33.6634C44.6893 33.718 44.5565 33.829 44.4743 33.9755C44.3921 34.122 44.3662 34.2938 44.4015 34.4582C44.4369 34.6226 44.531 34.7683 44.666 34.8675C44.801 34.9668 44.9676 35.0129 45.1341 34.9969C49.5005 34.5547 54.3757 32.6636 55.4246 26.6509C56.1415 22.5386 57.3281 15.733 57.5833 14.2701C57.5894 14.2354 57.5878 14.1999 57.5787 14.1659C57.5696 14.1319 57.5532 14.1003 57.5307 14.0734C57.5082 14.0464 57.48 14.0247 57.4483 14.0099C57.4166 13.9951 57.382 13.9874 57.347 13.9875L57.3458 13.9863ZM50.8303 23.3957C50.4734 23.5513 50.0883 23.6307 49.6994 23.629C49.3593 23.647 49.0192 23.5952 48.6997 23.4768C48.3802 23.3584 48.088 23.1759 47.8408 22.9404C47.3858 22.4405 47.1315 21.7886 47.1272 21.1109C47.095 20.494 47.1947 19.8774 47.4195 19.3026C47.5711 18.9406 47.7839 18.6076 48.0485 18.3186C48.31 18.0402 48.6266 17.82 48.9779 17.6723C49.336 17.5217 49.7207 17.4452 50.1088 17.4474C50.4489 17.4295 50.789 17.4814 51.1085 17.5998C51.428 17.7183 51.7202 17.9008 51.9674 18.1363C52.1928 18.3622 52.3698 18.6321 52.4875 18.9294C52.6053 19.2267 52.6613 19.5451 52.652 19.8649C52.6415 20.2946 52.6041 20.7232 52.5401 21.1482L52.4607 21.5723C52.4441 21.6456 52.4223 21.7176 52.3954 21.7878C52.2503 22.1469 52.0366 22.4739 51.7664 22.7503C51.499 23.0247 51.1811 23.2442 50.8303 23.3965" fill="#FFCC00"/>
<path d="M35.1193 3.8126C35.1193 3.8126 37.2095 4.20753 38.0882 7.74267C38.5067 9.42435 38.8004 10.6592 39.202 12.3132C39.2114 12.3466 39.2084 12.3823 39.1936 12.4136C39.1789 12.445 39.1533 12.4698 39.1217 12.4837C39.09 12.4975 39.0545 12.4994 39.0216 12.4889C38.9887 12.4784 38.9607 12.4563 38.9428 12.4267C38.3968 11.4132 36.9129 8.68671 34.7182 7.24944C33.5238 6.46693 31.9343 5.64915 30.7245 7.41278C29.7928 8.77014 29.1101 10.621 28.7236 11.8168C28.7113 11.855 28.6853 11.8871 28.6506 11.9069C28.6159 11.9267 28.5751 11.9327 28.5362 11.9237C28.4974 11.9146 28.4633 11.8913 28.4408 11.8582C28.4182 11.8252 28.4088 11.7847 28.4144 11.745C28.6079 10.3979 29.0698 8.96439 28.3237 8.12034C27.6051 7.30721 25.4847 7.55921 23.9326 7.56388C23.9016 7.56395 23.8716 7.55225 23.8488 7.53105C23.8259 7.50986 23.8119 7.48075 23.8095 7.4496C23.8071 7.41844 23.8164 7.38752 23.8357 7.36301C23.855 7.33851 23.8828 7.32222 23.9135 7.31744C25.6856 7.04795 28.4344 6.63086 29.3726 5.98193C29.8716 5.63661 31.5127 4.45103 28.7305 2.66756C26.6838 1.35512 24.0747 0.631858 22.8751 0.232291C22.8479 0.222571 22.8252 0.203219 22.8111 0.177891C22.797 0.152563 22.7926 0.122948 22.7986 0.0945814C22.8047 0.0662143 22.8207 0.041062 22.8439 0.0237327C22.867 0.00640347 22.8956 -0.00193059 22.9244 0.00037759C24.1322 0.100998 26.9407 0.283605 27.7559 0.345435C29.3004 0.462097 32.8121 0.717015 33.3924 2.55969C34.4387 1.71039 35.7245 1.43503 36.3254 1.71677C36.4251 1.75381 36.312 2.03968 36.312 2.03968C36.0046 2.68673 35.6024 3.28377 35.119 3.8109" fill="#F5F6F8"/>
<path d="M86.0971 13.4065C86.7517 13.401 87.4025 13.5077 88.0215 13.722C88.5908 13.9179 89.1184 14.22 89.5764 14.6125C90.0265 15.0079 90.3837 15.4989 90.6221 16.0501C90.8837 16.6536 91.0144 17.3062 91.0058 17.9645C91.0048 18.3213 90.9768 18.6776 90.9219 19.0302L89.6025 26.5683C89.5932 26.6214 89.5657 26.6696 89.5246 26.7043C89.4836 26.739 89.4317 26.758 89.378 26.7581H88.3509C88.0031 26.7582 87.6647 26.6441 87.3873 26.433C87.1098 26.2219 86.9086 25.9255 86.814 25.5889L86.7797 25.4679C86.484 25.7447 86.1563 25.9847 85.8037 26.183C85.4435 26.3853 85.0648 26.5522 84.6727 26.6811C84.2274 26.8287 83.7611 26.9021 83.2923 26.8984C82.6748 26.9093 82.0597 26.8169 81.4724 26.6248C80.9872 26.4654 80.5374 26.213 80.1477 25.8814C79.8012 25.584 79.5249 25.2127 79.3389 24.7944C79.1577 24.384 79.065 23.9396 79.0669 23.4905C79.0416 22.6956 79.2714 21.9136 79.7223 21.2602C80.1904 20.6265 80.8084 20.1204 81.5202 19.7876C82.3798 19.3841 83.2938 19.11 84.2328 18.9742C85.365 18.7994 86.5092 18.715 87.6546 18.7216C87.7098 18.4364 87.7041 18.1427 87.638 17.8598C87.5719 17.577 87.4469 17.3114 87.2713 17.0808C87.077 16.8541 86.8327 16.6764 86.5578 16.562C86.2829 16.4475 85.9852 16.3994 85.6885 16.4216C85.3694 16.4106 85.0534 16.4883 84.7753 16.6462C84.55 16.7785 84.3455 16.9438 84.1687 17.1367C84.017 17.3118 83.8884 17.5058 83.7859 17.7139C83.7668 17.7544 83.7364 17.7885 83.6984 17.8119C83.6604 17.8353 83.6164 17.8471 83.5719 17.8458L80.6815 17.7247C80.646 17.7235 80.6112 17.7138 80.58 17.6965C80.5488 17.6792 80.5221 17.6548 80.502 17.6252C80.482 17.5956 80.4691 17.5617 80.4645 17.5262C80.4598 17.4907 80.4636 17.4546 80.4754 17.4208C80.6552 16.9365 80.8933 16.4762 81.1844 16.0501C81.5352 15.5337 81.9606 15.0728 82.4464 14.6824C82.9422 14.2854 83.4978 13.9704 84.0921 13.7492C84.7332 13.5146 85.411 13.3982 86.093 13.4056L86.0971 13.4065ZM83.8619 24.317C84.6639 24.3359 85.445 24.0591 86.058 23.5386C86.6543 23.0416 87.0568 22.3487 87.1945 21.5822L87.32 21.007C86.5137 20.9977 85.7077 21.0422 84.9073 21.1403C84.3845 21.1975 83.8726 21.3296 83.3872 21.5328C83.066 21.6634 82.7914 21.8884 82.5993 22.1783C82.4436 22.4435 82.3639 22.7468 82.369 23.0547C82.3711 23.2213 82.4082 23.3855 82.4779 23.5366C82.5477 23.6877 82.6484 23.8223 82.7735 23.9314C83.0714 24.1991 83.4624 24.3376 83.8613 24.317" fill="#F5F6F8"/>
<path d="M74.5491 19.3246C74.7172 18.653 74.6198 17.9421 74.2774 17.3413C74.1063 17.0816 73.8694 16.8725 73.5911 16.7356C73.3128 16.5988 73.0032 16.5392 72.6944 16.5629C72.1462 16.5696 71.6196 16.7793 71.2154 17.1518C70.7598 17.5445 70.4529 18.1897 70.295 19.0872L68.99 26.5693C68.9807 26.6224 68.9531 26.6706 68.912 26.7053C68.8709 26.74 68.819 26.7589 68.7653 26.7588H67.574C67.3405 26.7589 67.1098 26.7074 66.8982 26.608C66.6866 26.5086 66.4993 26.3637 66.3495 26.1836C66.1997 26.0034 66.0909 25.7924 66.031 25.5655C65.971 25.3385 65.9613 25.101 66.0026 24.8698L66.9906 19.3255C67.1592 18.6532 67.0591 17.9412 66.7119 17.3422C66.539 17.0827 66.3007 16.8738 66.0214 16.7371C65.7421 16.6003 65.4317 16.5405 65.1219 16.5638C64.5737 16.5705 64.0472 16.7801 63.6429 17.1526C63.1873 17.5454 62.8805 18.1905 62.7225 19.088L61.4176 26.5701C61.4083 26.6233 61.3806 26.6715 61.3395 26.7062C61.2984 26.7408 61.2465 26.7598 61.1928 26.7598H60.0099C59.7768 26.7597 59.5465 26.7083 59.3353 26.6092C59.124 26.5102 58.9369 26.3657 58.787 26.1861C58.6372 26.0066 58.5282 25.7962 58.4679 25.5697C58.4075 25.3433 58.3972 25.1062 58.4376 24.8753L60.3892 13.7379C60.3986 13.6848 60.4262 13.6367 60.4673 13.6021C60.5084 13.5674 60.5604 13.5484 60.614 13.5484H61.6156C61.9688 13.5484 62.312 13.6662 62.5916 13.8834C62.8711 14.1006 63.0712 14.4048 63.1604 14.7485L63.1836 14.8384C63.4732 14.5662 63.7912 14.3263 64.1321 14.1229C64.4704 13.9401 64.8197 13.7785 65.1778 13.6391C65.5918 13.4805 66.0318 13.402 66.4747 13.4075C67.0029 13.3911 67.5285 13.4892 68.0157 13.6953C68.3776 13.8566 68.7213 14.0565 69.0408 14.2915C69.3482 14.5417 69.608 14.8458 69.8075 15.1892C70.1267 14.8514 70.4821 14.5504 70.8674 14.2915C71.2614 14.0519 71.6768 13.8499 72.1083 13.6884C72.635 13.4935 73.1929 13.3984 73.754 13.4075C75.0648 13.4075 76.092 13.7909 76.8357 14.5578C77.5794 15.3246 77.9513 16.3952 77.9513 17.7695C77.9513 18.0028 77.9416 18.239 77.9223 18.478C77.9029 18.7169 77.8751 18.9669 77.8388 19.228L76.5611 26.5699C76.5517 26.623 76.5241 26.6711 76.483 26.7058C76.4419 26.7405 76.39 26.7594 76.3363 26.7594H75.1416C74.9083 26.7594 74.6778 26.7081 74.4664 26.6089C74.255 26.5097 74.0678 26.3651 73.9179 26.1853C73.768 26.0055 73.6591 25.7949 73.5989 25.5682C73.5387 25.3416 73.5285 25.1044 73.5693 24.8733L74.5491 19.3246Z" fill="#F5F6F8"/>
<path d="M95.1686 26.5689C95.1592 26.622 95.1316 26.6701 95.0906 26.7047C95.0496 26.7394 94.9977 26.7584 94.9441 26.7585H93.7618C93.5287 26.7584 93.2985 26.7071 93.0872 26.608C92.876 26.509 92.6889 26.3646 92.539 26.185C92.3892 26.0054 92.2803 25.7951 92.2199 25.5687C92.1595 25.3422 92.1491 25.1053 92.1895 24.8744L94.9923 8.85556C95.0015 8.80246 95.0291 8.75438 95.0701 8.7197C95.1112 8.68503 95.1631 8.66603 95.2167 8.66602H96.4021C96.6351 8.66605 96.8652 8.71738 97.0764 8.81633C97.2875 8.91528 97.4746 9.05943 97.6244 9.23879C97.7742 9.41815 97.8832 9.62834 97.9438 9.85456C98.0043 10.0808 98.0149 10.3176 97.9748 10.5484L95.1686 26.5689Z" fill="#F5F6F8"/>
<path d="M100.777 26.5689C100.768 26.622 100.74 26.6701 100.699 26.7047C100.658 26.7394 100.606 26.7584 100.553 26.7585H99.3688C99.1357 26.7584 98.9055 26.7071 98.6942 26.608C98.483 26.509 98.2958 26.3646 98.1459 26.185C97.9961 26.0054 97.8872 25.7951 97.8268 25.5687C97.7664 25.3422 97.756 25.1053 97.7964 24.8744L100.599 8.85556C100.609 8.80244 100.636 8.75437 100.677 8.7197C100.718 8.68504 100.77 8.66601 100.824 8.66602H102.009C102.242 8.66605 102.472 8.71738 102.684 8.81633C102.895 8.91528 103.082 9.05943 103.232 9.23879C103.381 9.41815 103.491 9.62834 103.551 9.85456C103.612 10.0808 103.622 10.3176 103.582 10.5484L100.777 26.5689Z" fill="#F5F6F8"/>
</svg>
